# xmcd
#
# Track frame offsets:
#	150
#	15140
#	26362
#	43632
#	52785
#	64587
#	75235
#	85357
#	96985
#	116822
#	133480
#	146885
#	166847
#	178835
#	191042
#	220582
#	234237
#	245825
#	260530
#	274467
#
# Disc length: 3783
#
# Revision: 3
# Processed by: cddbd v1.5.1PL0 Copyright (c) Steve Scherf et al.
# Submitted via: CDmax 1.8
# Normalized: r1:TDELIM( - ),TSWAP
#
DISCID=180ec514
DTITLE=Various Artist - Blues
DYEAR=1900
DGENRE=Blues
TTITLE0=Billie Holliday - Georgia on my Mind
TTITLE1=Big Joe Williams - Bye Bye Baby Blues
TTITLE2=Muddy Waters - Blow Wind Blow
TTITLE3=Memphis Slim - Stepping Out
TTITLE4=Canned Heat - Straight Ahead
TTITLE5=Ray Charles - Hey Now
TTITLE6=John Lee Hooker - Dimples
TTITLE7=Lightnin' Hopkins - Lightnin's Boogie
TTITLE8=Howlin' Wolf - Howlin' for my Darlin'
TTITLE9=Mississippi John Hurt - Coffee Blues
TTITLE10=Leadbelly - Frankie and Albert
TTITLE11=Pinetop Perkins - Just Keep on Drinking
TTITLE12=Jimmy Reed - Hush, Hush
TTITLE13=Lightning Slim - Rooster Blues
TTITLE14=Big Joe Turner - Morning Noon and Night
TTITLE15=Muddy Waters - Hoochie Coochie Man
TTITLE16=Big Joe Williams - Ride in my New Car
TTITLE17=Billie Holiday - Lover Man
TTITLE18=Canned Heat - Louise
TTITLE19=Ray Charles - All to Myself
EXTD=
EXTT0=
EXTT1=
EXTT2=
EXTT3=
EXTT4=
EXTT5=
EXTT6=
EXTT7=
EXTT8=
EXTT9=
EXTT10=
EXTT11=
EXTT12=
EXTT13=
EXTT14=
EXTT15=
EXTT16=
EXTT17=
EXTT18=
EXTT19=
PLAYORDER=
